<svg width="90" height="90" fill="none" xmlns="http://www.w3.org/2000/svg"><path d="M89.417 41.816A4 4 0 0 0 85.5 37H63.078c-1.77 0-3.403.956-4.269 2.5A4.895 4.895 0 0 1 54.54 42H24.253a4 4 0 0 0-3.916 3.18L12.003 85h65.165a4 4 0 0 0 3.915-3.184l8.334-40z" fill="#E2B664"/><path fill-rule="evenodd" clip-rule="evenodd" d="m78.457 84.787-8.917-.747-6.563-47.039.101-.001H81v45.146a4.002 4.002 0 0 1-2.543 2.641z" fill="#CA9350"/><path d="M74 5H18a4 4 0 0 0-4 4v56a4 4 0 0 0 4 4h56a4 4 0 0 0 4-4V9a4 4 0 0 0-4-4z" fill="#543426"/><path d="M78 21H14v16h64V21zM78 53H14v16h60a4 4 0 0 0 4-4V53z" fill="#9D6C3E"/><path d="M70 5H14a4 4 0 0 0-4 4v56a4 4 0 0 0 4 4h56a4 4 0 0 0 4-4V9a4 4 0 0 0-4-4z" fill="#9D6C3E"/><path fill-rule="evenodd" clip-rule="evenodd" d="M14 5h12v16H10V9a4 4 0 0 1 4-4zm28 16H26v16h16v16h16v17h13a3 3 0 0 0 3-3V53H58V37h16V21H58V5H42v16zm0 0v16h16V21H42z" fill="#FBEBC1"/><path d="M10 54.342V9a4 4 0 0 1 4-4h56L15.704 6.848a4 4 0 0 0-3.86 3.829L10 54.342z" fill="#CA9350"/><path fill-rule="evenodd" clip-rule="evenodd" d="M26 6.497V5H14a4 4 0 0 0-4 4v12h1.408l.436-10.323a4 4 0 0 1 3.86-3.83L26 6.498zm32-1.089-16 .545V5h16v.408z" fill="#F8F8F8"/><path fill-rule="evenodd" clip-rule="evenodd" d="M26 32h3.923c1.77 0 3.403.956 4.269 2.5A4.895 4.895 0 0 0 38.46 37H26v-5zm0 21V37H10v16h16zm16 0H26v16h16V53zm0-16v16h16v16h16V53H58V37H42z" fill="#E2B664"/><path fill-rule="evenodd" clip-rule="evenodd" d="M10.29 69 10 67.612V53h16v16H10.29zm58.458-32H58v16H42V37H26v-5H10v5h16v16h16v16h16V53h16v-6.434l-1.336-6.386A4 4 0 0 0 68.748 37z" fill="#6A4632"/><path d="M.583 41.816A4 4 0 0 1 4.5 37h22.423c1.77 0 3.403.956 4.269 2.5A4.895 4.895 0 0 0 35.46 42h30.288a4 4 0 0 1 3.915 3.18L77.997 85H12.832a4 4 0 0 1-3.915-3.184l-8.334-40z" fill="#F9D983"/><path d="M.583 41.816A4 4 0 0 1 4.5 37h16.498L5.573 38.07a4 4 0 0 0-3.678 4.588l2.989 19.801-4.3-20.643z" fill="#FBEBC1"/></svg>