<svg width="90" height="90" fill="none" xmlns="http://www.w3.org/2000/svg"><path d="M40 75c19.33 0 35-15.67 35-35S59.33 5 40 5 5 20.67 5 40s15.67 35 35 35z" fill="#AED0F0"/><path fill-rule="evenodd" clip-rule="evenodd" d="M65 27.5C65 45.45 50.448 60 32.5 60c-11.297 0-21.248-5.764-27.072-14.511C8.062 62.211 22.538 75 40 75c19.33 0 35-15.67 35-35 0-11.397-5.447-21.521-13.88-27.912A32.356 32.356 0 0 1 65 27.5z" fill="#D0E6FB"/><path fill-rule="evenodd" clip-rule="evenodd" d="M5 40c0 19.314 15.645 34.975 34.953 35H40V40h35C75 20.67 59.33 5 40 5v35H5z" fill="#486688"/><path fill-rule="evenodd" clip-rule="evenodd" d="M32.5 60c2.581 0 5.093-.3 7.5-.87V75h-.074c-17.43-.036-31.868-12.813-34.498-29.512C11.252 54.236 21.203 60 32.5 60zm28.62-47.911C67.428 16.868 72.064 23.735 74 31.66V40H62.51A32.403 32.403 0 0 0 65 27.5a32.356 32.356 0 0 0-3.88-15.411z" fill="#749BBF"/><path fill-rule="evenodd" clip-rule="evenodd" d="M40.066 75C59.366 74.964 75 59.308 75 40H62.632C58.266 49.19 50.014 56.175 40 58.832V75h.066z" fill="#D0E6FB"/><path d="m57.416 67.39 21.06 21.05c1.066 1.118 1.89 1.558 3.225 1.558 1.708 0 3.424-1.266 5.225-3.068 1.887-1.887 3.07-3.739 3.07-5.457 0-.964-.52-2-1.56-2.993l-21.05-21.05" fill="#666564"/><path opacity=".5" fill-rule="evenodd" clip-rule="evenodd" d="M79.423 89.293c.681.496 1.359.705 2.278.705 1.708 0 3.424-1.266 5.225-3.068 1.887-1.887 3.071-3.739 3.071-5.457 0-.964-.52-2-1.56-2.993L71.63 61.675l12.56 16.118c3.625 4.652.365 10.92-4.768 11.5z" fill="#8B8987"/><path fill-rule="evenodd" clip-rule="evenodd" d="M76.51 66.554c-4.682 3.521-6.541 9.641-4.837 15.086L57.416 67.39l9.97-9.96 9.124 9.124z" fill="#4B4847"/><path fill-rule="evenodd" clip-rule="evenodd" d="M40 80c22.091 0 40-17.909 40-40S62.091 0 40 0 0 17.909 0 40s17.909 40 40 40zm0-14c14.36 0 26-11.64 26-26S54.36 14 40 14 14 25.64 14 40s11.64 26 26 26z" fill="#749BBF"/><path fill-rule="evenodd" clip-rule="evenodd" d="M40 80c22.091 0 40-17.909 40-40S62.091 0 40 0 0 17.909 0 40s17.909 40 40 40zm0-10c16.569 0 30-13.431 30-30 0-16.569-13.431-30-30-30-16.569 0-30 13.431-30 30 0 16.569 13.431 30 30 30z" fill="#DAD8D6"/><path fill-rule="evenodd" clip-rule="evenodd" d="M25.277 77.204A39.895 39.895 0 0 0 40 80c15.94 0 29.704-9.325 36.132-22.817C64.954 73.2 44.43 81.349 25.277 77.203z" fill="#BEBDB9"/><path fill-rule="evenodd" clip-rule="evenodd" d="M50.82 1.48A40.034 40.034 0 0 0 40 0C23.706 0 9.688 9.742 3.452 23.72 13.552 8.01 32.432-.678 50.82 1.48z" fill="#F1F1F1"/></svg>