<svg width="90" height="90" fill="none" xmlns="http://www.w3.org/2000/svg"><path d="M5 13a8 8 0 0 1 8-8h12v80H13a8 8 0 0 1-8-8V13zM45 5h20v80H45V5z" fill="#6A4632"/><path d="M85 13a8 8 0 0 0-8-8H65v80h12a8 8 0 0 0 8-8V13zM45 5H25v80h20V5z" fill="#E2B664"/><path d="M77 5H13a8 8 0 0 0-8 8v60a8 8 0 0 0 8 8h64a8 8 0 0 0 8-8V13a8 8 0 0 0-8-8z" fill="#FBEBC1"/><path fill-rule="evenodd" clip-rule="evenodd" d="M13 5a8 8 0 0 0-8 8v11h20v19H5v19h20v19h20V62h20v19h12a8 8 0 0 0 8-8V62H65V43h20V24H65V5H45v19H25V5H13zm32 38v19H25V43h20zm0 0V24h20v19H45z" fill="#FBEBC1"/><path fill-rule="evenodd" clip-rule="evenodd" d="M25 5h20v19H25V5zm0 38H5V24h20v19zm20 0H25v19H5v11a8 8 0 0 0 8 8h12V62h20v19h20V62h20V43H65V24h20V13a8 8 0 0 0-8-8H65v19H45v19zm0 0h20v19H45V43z" fill="#9D6C3E"/><path fill-rule="evenodd" clip-rule="evenodd" d="M12.182 5.041C12.451 5.014 12.724 5 13 5h12v2.105l-9.831.518a8 8 0 0 0-7.567 7.545L7.112 24H5V13a8.001 8.001 0 0 1 7.182-7.959zM5 43v19l1.056-19H5zM45 6.053V5h20L45 6.053zm0 73.894V81H25l20-1.053zm20-1.052V81h12a8 8 0 0 0 8-8V62h-2.111l-.49 8.832a8 8 0 0 1-7.568 7.545L65 78.895zM83.944 43H85V24l-1.056 19z" fill="#FBF3D8"/><path fill-rule="evenodd" clip-rule="evenodd" d="M45 6.053V5H25v2.105l20-1.052zM7.111 24H5v19h1.056L7.11 24zM45 81h20v-2.105l-20 1.052V81zm37.889-19H85V43h-1.056L82.89 62z" fill="#CA9350"/></svg>