<svg width="90" height="90" fill="none" xmlns="http://www.w3.org/2000/svg"><path d="M11 33.924V83h68V33.924L45 6 11 33.924z" fill="#CA9350"/><path d="M45 6 10 34.11V48l35-28.023 35 27.539V33.655L45 6z" fill="#9D6C3E"/><path d="M10 40h70v35H10V40z" fill="#543426"/><path d="M10 40h70v4H10v-4zM20 44h10v23.571c-3.309.57-6.691.57-10 0V44zM40 44h10v23.571c-3.309.57-6.691.57-10 0V44zM60 44h10v23.571c-3.309.57-6.691.57-10 0V44z" fill="#40241A"/><path d="M10 40h10v33H10V40z" fill="#9D6C3E"/><path d="M10 66c.736-9.527.628-22.642 2.749-23.536H10V66zM20 66c-.736-9.527-.628-22.642-2.749-23.536H20V66z" fill="#CA9350"/><path d="M20 44a15.81 15.81 0 0 0-10 0v-4h10v4z" fill="#6A4632"/><path d="M30 40h10v33H30V40z" fill="#9D6C3E"/><path d="M30 66c.736-9.527.628-22.642 2.749-23.536H30V66zM40 66c-.736-9.527-.628-22.642-2.749-23.536H40V66z" fill="#CA9350"/><path d="M40 44a15.81 15.81 0 0 0-10 0v-4h10v4z" fill="#6A4632"/><path d="M50 40h10v33H50V40z" fill="#9D6C3E"/><path d="M50 66c.736-9.527.628-22.642 2.749-23.536H50V66zM60 66c-.736-9.527-.628-22.642-2.749-23.536H60V66z" fill="#CA9350"/><path d="M60 44a15.81 15.81 0 0 0-10 0v-4h10v4z" fill="#6A4632"/><path d="M70 40h10v33H70V40z" fill="#9D6C3E"/><path d="M70 66c.736-9.527.628-22.642 2.749-23.536H70V66zM80 66c-.736-9.527-.628-22.642-2.749-23.536H80V66z" fill="#CA9350"/><path d="M80 44a15.81 15.81 0 0 0-10 0v-4h10v4z" fill="#6A4632"/><path d="M86.175 42.537a5 5 0 0 1-7.136.82L44.999 15.43 10.963 43.354a5 5 0 0 1-7.137-.82l-.863-1.125a5 5 0 0 1 .814-6.926l38.07-30.922a5 5 0 0 1 6.306 0l38.07 30.93a5 5 0 0 1 .812 6.928l-.86 1.118z" fill="#4B4847"/><path d="M88.07 38.367a4.983 4.983 0 0 0-1.752-2.717L48.098 5.45a5 5 0 0 0-6.2-.001L3.682 35.642a4.983 4.983 0 0 0-1.753 2.718 4.992 4.992 0 0 1 1.848-3.877l38.07-30.922a5 5 0 0 1 6.306 0l38.07 30.93a4.992 4.992 0 0 1 1.848 3.876z" fill="#666564"/><path d="M2 82a2 2 0 0 1 2-2h82a2 2 0 0 1 2 2v2a1 1 0 0 1-1 1H3a1 1 0 0 1-1-1v-2z" fill="#CA9350"/><path d="M2 82a2 2 0 0 1 2-2h82a2 2 0 0 1 2 2v.364C88 81.61 87.39 81 86.636 81H3.364C2.61 81 2 81.61 2 82.364V82z" fill="#9D6C3E"/><path d="M5 77a2 2 0 0 1 2-2h76a2 2 0 0 1 2 2v3H5v-3z" fill="#CA9350"/><path d="M5 77a2 2 0 0 1 2-2h76a2 2 0 0 1 2 2v.364C85 76.61 84.39 76 83.636 76H6.364C5.61 76 5 76.61 5 77.364V77z" fill="#9D6C3E"/><path d="M8 72a2 2 0 0 1 2-2h70a2 2 0 0 1 2 2v3H8v-3z" fill="#CA9350"/><path d="M8 72a2 2 0 0 1 2-2h70a2 2 0 0 1 2 2v.364C82 71.61 81.39 71 80.636 71H9.364C8.61 71 8 71.61 8 72.364V72z" fill="#9D6C3E"/></svg>