<svg width="90" height="90" fill="none" xmlns="http://www.w3.org/2000/svg"><path d="M52 62H38v16h14V62z" fill="#324660"/><path d="M38 72.5a20.812 20.812 0 0 1 14 0V83H38V72.5z" fill="#486688"/><path d="M84 22H6a6 6 0 0 0-6 6v13a6 6 0 0 0 6 6h78a6 6 0 0 0 6-6V28a6 6 0 0 0-6-6z" fill="#324660"/><path fill-rule="evenodd" clip-rule="evenodd" d="M5.387 22.031A6 6 0 0 0 0 28v13a5.994 5.994 0 0 0 2.64 4.971A16.977 16.977 0 0 0 8 33.591V22H6c-.207 0-.412.01-.613.031zM82 22v11.592c0 4.737 1.976 9.204 5.36 12.38A5.994 5.994 0 0 0 90 41V28a6 6 0 0 0-6-6h-2z" fill="#486688"/><path d="M0 40V28a6 6 0 0 1 6-6h1l-.073.038a10 10 0 0 0-5.217 7.27L0 40zM90 40V28a6 6 0 0 0-6-6h-1l.073.038a10 10 0 0 1 5.217 7.27L90 40z" fill="#749BBF"/><path d="M21.317 82.566a9.854 9.854 0 0 1 6.673-4.512 98.534 98.534 0 0 1 34.02 0 9.854 9.854 0 0 1 6.673 4.512L71 86.302l-6.03 1.229a100 100 0 0 1-39.94 0L19 86.302l2.317-3.736z" fill="#DAD8D6"/><path d="M21.317 82.566a9.853 9.853 0 0 1 6.673-4.512 98.534 98.534 0 0 1 34.02 0 9.853 9.853 0 0 1 6.673 4.512L71 86.302l-3.348-3.339a13.892 13.892 0 0 0-7.543-3.868 92.611 92.611 0 0 0-30.218 0 13.892 13.892 0 0 0-7.543 3.868L19 86.303l2.317-3.737z" fill="#F1F1F1"/><path d="M72 5H18a8 8 0 0 0-8 8v48a8 8 0 0 0 8 8h54a8 8 0 0 0 8-8V13a8 8 0 0 0-8-8z" fill="#E7E6E5"/><path d="M10 37V13a8 8 0 0 1 8-8h44L20.275 6.07a9 9 0 0 0-8.749 8.389L10 37zM80 37v24a8 8 0 0 1-8 8H28l42.636-1.093a8 8 0 0 0 7.776-7.457L80 37z" fill="#F8F8F8"/><path d="M68 13H22a4 4 0 0 0-4 4v40a4 4 0 0 0 4 4h46a4 4 0 0 0 4-4V17a4 4 0 0 0-4-4z" fill="#749BBF"/><path d="M67 16H23a2 2 0 0 0-2 2v38a2 2 0 0 0 2 2h44a2 2 0 0 0 2-2V18a2 2 0 0 0-2-2z" fill="#AED0F0"/><path opacity=".5" d="M21 50.591V18a2 2 0 0 1 2-2h43.312l-33.784 2.103a10 10 0 0 0-9.335 9.049L21 50.592z" fill="#D0E6FB"/><path fill-rule="evenodd" clip-rule="evenodd" d="m31.882 41.646 2.236 1.118a24.333 24.333 0 0 0 21.764 0l2.236-1.118 2.236 4.472-2.236 1.118a29.333 29.333 0 0 1-26.236 0l-2.236-1.118 2.236-4.472zM54.444 36C56.952 36 59 33.767 59 31.001c0-2.765-2.032-5.093-4.556-4.998C52.048 26.003 50 28.236 50 31 50 33.767 51.937 36 54.444 36zm-18.888 0C37.952 36 40 33.767 40 31.001c0-2.765-2.048-5.093-4.444-4.998C33.048 26.003 31 28.236 31 31 31 33.767 33.032 36 35.556 36z" fill="#486688"/></svg>