<svg xmlns="http://www.w3.org/2000/svg" viewBox="0 0 24 24" height="24" width="24">
  <path fill="currentColor" d="M19.33 16H18V9H20V4H15V6H7.99999V4.67C7.99999 2.67 8.66999 2 10.67 2H19.34C21.34 2 22.01 2.67 22.01 4.67V13.34C22.01 15.34 21.34 16.01 19.34 16.01L19.33 16ZM13.33 22H4.65999C2.65999 22 1.98999 21.33 1.98999 19.33V10.66C1.98999 8.66 2.65999 7.99 4.65999 7.99H13.33C15.33 7.99 16 8.66 16 10.66V19.33C16 21.33 15.33 22 13.33 22ZM3.99999 20H8.99999V15H14V10H8.99999V15H3.99999V20Z" />
</svg>
