<svg width="90" height="90" fill="none" xmlns="http://www.w3.org/2000/svg"><path d="M42.59 76.869S12.17 56.025 10.755 54.477c-1.404-1.557-2.412-5.229-2.997-5.958-.999-1.251-2.817-2.871-5.112-4.545-2.701-1.973-3.08-4.764-2.07-7.794l6.615-18.918c1.204-3.03 4.472-4.372 7.434-2.844 2.905 1.485 5.83 2.92 8.784 4.302l22.96 8.307.548.297c3.294 1.773 9.46 5.049 13.653 7.011 2.502 1.152 6.831 4.392 11.808 8.199a126.574 126.574 0 0 0 7.542 5.346c5.532 4.714 4.091 13.91-4.095 13.5 0 5.15-5.91 7.588-10.332 6.624-.43 4.586-5.084 7.156-9.423 6.66-1.977 6.006-9.242 5.86-13.482 2.205z" fill="#8D694B"/><path fill-rule="evenodd" clip-rule="evenodd" d="M1.278 42.673c.366.464.82.9 1.369 1.301 2.295 1.674 4.113 3.294 5.112 4.545.222.277.505.978.848 1.827.56 1.386 1.278 3.165 2.149 4.131.249.273 1.398 1.144 3.122 2.395l-3.51-7.467a5 5 0 0 0-1.904-2.131l-5.859-3.606a9 9 0 0 1-1.327-.995zm27.776 24.865c7.093 4.917 13.535 9.331 13.535 9.331 4.24 3.654 11.505 3.801 13.482-2.205 4.339.496 8.992-2.074 9.423-6.66 4.422.964 10.332-1.475 10.332-6.624 5.9.295 8.297-4.4 7.103-8.81.213 4.383-5.753 8.452-12.67 3.782 4.636 5.06-4.072 11.239-10.66 6.599 3.856 5.787-5.68 10.668-10.354 6.294 1.595 4.374-5.389 8.954-9.669 4.374l-10.522-6.08zm51.48-19.09a9.905 9.905 0 0 0-.613-.568 126.574 126.574 0 0 1-7.542-5.346c-4.805-3.675-9.006-6.822-11.542-8.072L80.496 48.42l.038.028z" fill="#6B4D3A"/><path d="M60.876 34.794c3.215 1.155-11.5-6.15-13.968-7.479l-21.771-7.974c-5.152 4.19-5.852 13.212-5.731 17.917.036 1.426.783 2.773 2.095 3.335 6.61 2.828 12.287-3.708 13.644-10.461 0 0 8.73-1.017 10.989-1.269 2.06.882 9.846 4.185 14.75 5.922l-.008.009z" fill="#6B4D3A"/><path d="M72.049 42.417c-4.042-3.078-8.974-6.489-11.638-7.731-4.724-2.196-12.168-6.201-14.139-7.263-2.267.036-8.747.162-11.051.243-1.981 3.467-3.537 8.033-7.551 9.639-3.075 1.225-6.744 1.03-8.839-1.773.452-2.66.702-5.342 1.233-7.992 1.378-6.867 2.934-8.901 3.979-9.828 3.456-3.06 6.21-3.969 10.727-4.734 1.206-.207 2.8-.612 4.518-1.035 3.952-.999 8.029-2.034 10.819-2.034.8 0 1.467.081 2.043.252 2.465.72 7.992 2.259 11.322 2.916 1.8.351 3.672 1.152 5.318 1.872 1.125.486 2.53 1.089 3.096 1.134.684-.054 3.214-1.26 4.564-1.899 2.844-1.337 6.187.432 6.92 3.447l6.291 19.557c.92 2.87-.71 5.515-2.124 6.453-2.364 1.555-4.571 3.3-6.93 4.851 0 0-3.662-2.34-8.567-6.075h.008z" fill="#E3C29C"/><path fill-rule="evenodd" clip-rule="evenodd" d="M20.067 27.526c1.377-6.856 2.932-8.888 3.976-9.814 3.456-3.06 6.21-3.969 10.727-4.734 1.07-.184 2.443-.523 3.938-.892l.58-.143.07-.017c3.929-.994 7.975-2.017 10.748-2.017.801 0 1.468.081 2.044.252 2.465.72 7.992 2.259 11.322 2.916 1.8.351 3.672 1.152 5.318 1.872 1.125.486 2.53 1.089 3.096 1.134.664-.052 3.062-1.188 4.438-1.84l.126-.059c2.844-1.337 6.187.432 6.92 3.447l6.291 19.557c.093.29.16.576.204.86L81.61 18.374a4 4 0 0 0-5.764-1.872l-3.448 2.094-7.23-3.545-12.133-2.621a10 10 0 0 0-4.733.124l-12.797 3.477a10 10 0 0 0-7.17 7.618l-1.076 5.186-2.272-1.677a3.781 3.781 0 0 0-4.92.368z" fill="#FADAAE"/><path d="M73.837 32.958c-11.494 1.287-20.728-7.353-24.868-7.506-4.148-.144-13.76 2.205-13.76 2.205 2.303-.072 8.792-.207 11.051-.243 1.971 1.062 9.415 5.067 14.14 7.263 2.672 1.251 7.596 4.653 11.637 7.731 0 0 9.017-10.26 1.8-9.459v.009zM25.293 36.272l1.354-.494-.24 1.084a2.136 2.136 0 0 1-1.34 1.548l-1.15.423a4.204 4.204 0 0 1-4.992-1.68 1.582 1.582 0 0 1-.22-1.17l.225-1.118a6.052 6.052 0 0 0 6.363 1.407zM76.266 45.522c2.62 1.872 4.338 2.97 4.338 2.97l1.71-1.125c.072-.072.82-.846 5.22-3.726.306-.207.531-.414.756-.621-3.348.963-12.015 2.511-12.024 2.511v-.009zM32.075 77.283c-3.12 1.872-8.736-1.04-9.203-5.044-3.017.884-7.557-2.657-8.165-5.9-4.897.18-6.647-5.163-5.778-9.099.675-3.042 3.546-6.201 7.19-6.201 2.618 0 4.874 1.768 5.869 4.14 3.259-.889 7 .445 8.118 3.861 4.463-.926 8.137 2.836 7.803 7.299 4.611.769 6.674 5.124 5.598 9.486-1.462 5.904-8.706 5.767-11.432 1.458z" fill="#D5A47D"/><path d="M32.075 77.283c-3.12 1.872-8.736-1.04-9.203-5.044-3.017.884-7.557-2.657-8.165-5.9-4.897.18-6.647-5.163-5.778-9.099.675-3.042 3.546-6.201 7.19-6.201 2.618 0 4.874 1.768 5.869 4.14 3.259-.889 7 .445 8.118 3.861 4.463-.926 8.137 2.836 7.803 7.299 4.611.769 6.674 5.124 5.598 9.486-1.462 5.904-8.706 5.767-11.432 1.458z" fill="#D5A47D"/><path fill-rule="evenodd" clip-rule="evenodd" d="M37.926 65.569c.001.255-.008.516-.028.782.102.013.203.027.302.042 2.332.477 3.977 1.896 4.852 3.759.176.564.26 1.17.245 1.807-.733 8.2-11.508 5.926-9.534-.582-4.174 4.398-10.077.502-8.348-5.836-2.312 3.372-9.469 1.905-7.735-3.83-4.58 2.312-8.72-1.245-8.038-5.584.079-.5.223-1.024.43-1.542 1.304-1.984 3.484-3.546 6.047-3.546.835 0 1.634.18 2.366.502 1.554.867 2.916 2.275 3.492 3.65a8.22 8.22 0 0 1 1.46-.26c2.417-.175 4.848.806 6.11 2.89.222.383.406.796.548 1.231a6.985 6.985 0 0 1 2.227-.094c3.154.438 5.511 3.248 5.604 6.61z" fill="#E3C29C"/><path fill-rule="evenodd" clip-rule="evenodd" d="M43.178 70.636c-1.246-2.078-3.947-3.335-5.861-3.335 0-7.262-5.174-7.54-7.582-7.072-.468-3.78-5.863-5.392-8.606-3.681-1.082-5.39-6.166-6.05-8.828-4.233l.009-.06c1.092-.748 2.38-1.216 3.783-1.216.885 0 1.73.202 2.497.562 1.32.762 2.491 1.91 3.14 3.084.084.162.16.326.23.494l.01-.003.007.015a8.21 8.21 0 0 1 1.572-.269c2.8-.151 5.591 1.249 6.53 4.118l.011-.002.005.014a7 7 0 0 1 2.056-.112c3.466.398 6.011 3.652 5.73 7.399l.018.003-.001.009.194.026c2.444.473 4.144 1.973 5.008 3.937.03.106.056.213.078.322z" fill="#FADAAE"/><path d="m11.396 55.06-.1-.914a10.964 10.964 0 0 0 6.903 4.327l.148.027c-2.916 1.726-6.58-.088-6.95-3.44zM19.289 60.176l-.101-.913a10.963 10.963 0 0 0 6.904 4.327l.147.027c-2.915 1.727-6.58-.088-6.95-3.44zM27.113 65.249l-.101-.913a10.964 10.964 0 0 0 6.903 4.327l.148.026c-2.916 1.727-6.58-.087-6.95-3.44zM34.783 70.222l-.1-.913a10.964 10.964 0 0 0 6.903 4.327l.147.027c-2.915 1.726-6.58-.088-6.95-3.44z" fill="#FADAAE"/></svg>