<svg width="90" height="90" fill="none" xmlns="http://www.w3.org/2000/svg"><path d="M47 0h-4v11h4V0zM63.76 4.297l-5.62 9.652 4.145 2.414 5.62-9.653-4.145-2.413zM79.421 18.289l-9.69 5.563L72.12 28l9.69-5.552-2.388-4.16zM27.049 4.304l-4.136 2.407 5.619 9.654 4.136-2.407-5.619-9.654zM9 22.448 18.69 28l2.387-4.148-9.69-5.563L9 22.448z" fill="#FAD541"/><path d="M39.326 84.648C39.326 90 42.705 90 45.44 90s6.115 0 6.115-5.352h-12.23z" fill="#666564"/><path d="M32 72h26v4.56C58 82.817 56.063 86 45.113 86 34.163 86 32 82.89 32 76.56V72z" fill="#E7E6E5"/><path fill-rule="evenodd" clip-rule="evenodd" d="M41.167 72H32v4.56c0 6.052 1.977 9.161 11.723 9.422a9.993 9.993 0 0 1-2.904-7.606L41.167 72z" fill="#BEBDB9"/><path d="M20 39.987C20 25.637 31.201 15 45 15c13.811 0 25 10.611 25 24.987 0 8.208-4.117 14.352-7.528 18.035C59.925 60.772 58 64.252 58 68H32c0-3.749-1.925-7.228-4.473-9.978C24.117 54.339 20 48.195 20 39.987z" fill="#F7C631"/><path fill-rule="evenodd" clip-rule="evenodd" d="M33.85 17.52C25.642 21.489 20 29.803 20 39.987c0 8.208 4.116 14.352 7.527 18.035C30.075 60.772 32 64.252 32 68h6.5v-1.592c0-3.754-1.622-7.325-4.45-9.795-12.62-11.027-11.1-29.357-.2-39.093zM51.5 68v-1.592c0-3.754 1.622-7.325 4.45-9.795 12.627-11.033 11.098-29.377.183-39.108C64.354 21.462 70 29.774 70 39.986c0 8.208-4.117 14.352-7.528 18.035C59.925 60.772 58 64.252 58 68h-6.5z" fill="#FAD541"/><path d="M33 40.681C33 32.917 38.377 28 45 28c6.63 0 12 4.904 12 12.681 0 2.653-1.238 4.865-2.848 6.62-3.61 3.936-7.267 8.456-7.267 13.797V68h-3.77v-6.902c0-5.341-3.656-9.861-7.267-13.797-1.61-1.755-2.848-3.967-2.848-6.62z" fill="#FCE26A"/><path d="M20 39.987C20 25.637 31.201 15 45 15c13.811 0 25 10.611 25 24.987-5-30-45-30-50 0z" fill="#FFF599"/><path d="M45 47a7 7 0 1 0 0-14 7 7 0 0 0 0 14z" fill="#fff"/><path d="M32 67a85.496 85.496 0 0 0 26 0v5a85.496 85.496 0 0 1-26 0v-5z" fill="#B27314"/></svg>