<svg width="91" height="90" fill="none" xmlns="http://www.w3.org/2000/svg"><path d="m84.15 63.34 4 1.74-3.69 2.35-.31-4.09zM83.88 49.32l4 1.74-3.69 2.34-.31-4.08zM84.28 35.16l4.01 1.74-3.69 2.34-.32-4.08z" fill="#CA9350"/><path d="M86.67 65.94 53.89 84.71l-1.87-40.85 34.64-18.07s-1.87 7.31 0 11.97c.12.31.04 1.45.04 1.45s-2.24 8.59-.04 12.76c.34.64-.12 1.24-.12 1.24s-1.74 6.7.12 12.73h.01z" fill="#E7E6E5"/><path d="m56.27 47.28 29.68-16.97c.22-2.54.72-4.52.72-4.52L52.03 43.86l.49 10.87 1.95 1.01c.02-4.45 1.81-8.46 1.81-8.46h-.01zM56 61.3l29.84-17.01c.14-1.42.36-2.7.54-3.62v-.8L52.65 57.4l.54 11.83 1 .52c.02-4.45 1.81-8.46 1.81-8.46v.01zM56.27 75.59l29.56-16.91c.07-1.85.3-3.42.48-4.39L53.29 71.51l.56 12.22.62.32c.02-4.45 1.81-8.46 1.81-8.46h-.01z" fill="#BEBDB9"/><path d="M89.11 53.11 55.28 72.09v.01c-1.49 3.43-1.49 8.38-.81 11.95l33.69-18.97.81.41.01.01c1.22.42 1.36 1.24.41 1.79L55.56 86.26 1.76 64.4c-2.32-4.81-2.31-10.86-.14-14.16-2.45-4.819-1.77-10.737.269-14.168A12.956 12.956 0 0 1 .25 29.75c0-2.33.68-4.4 1.77-6.19l53.13 21.59c-.81 1.93-1.22 3.98-1.22 5.91 0 1.66.27 3.17.54 4.68l33.69-18.83h.13l.82.27c.54.27.95.69.82.96 0 .28-.14.55-.55.83L55.569 58.06h.001c-1.49 3.44-2.04 8.12-1.36 11.69l33.69-18.7.94.28c1.09.41 1.22 1.23.27 1.78z" fill="#9D6C3E"/><path d="M88.97 24.11 39.79 4.05c-1.09-.41-2.85-.41-3.67.14L2.02 23.56l53.12 21.59 34.1-19.25c.95-.55.81-1.38-.27-1.79z" fill="#CA9350"/><path fill-rule="evenodd" clip-rule="evenodd" d="m55.21 57.93-53.7-21.1c.05-.097.098-.2.146-.3.074-.16.148-.32.234-.46-.216-.375-.379-.76-.538-1.136l-.032-.074 54.23 23.21-.34-.14zM1.322 50.8c.094-.196.188-.391.298-.56a9.508 9.508 0 0 1-.439-1.02l-.081-.21L55.28 72.1 1.22 51.01l.102-.21z" fill="#6A4632"/><path d="m50.28 34.137 18.71-10.322c-3.67-1.405-7.324-1.056-10.878-.712-3.356.333-6.514.654-9.555-.51l-1.31-.503 2.62-1.445c-.303-.421-.896-.78-1.63-1.06L43 20.463c.396-1.247-.475-2.237-2.153-2.88-2.779-1.063-7.045-.817-9.524.55-2.479 1.368-2.236 3.341.543 4.405 1.678.643 3.952.858 6.602.474l-.99 2.506a8.771 8.771 0 0 0 2.565.545l2.62-1.445 1.31.502c3.041 1.165 2.925 2.65 2.82 4.227-.095 1.669-.183 3.384 3.487 4.79z" fill="#9D6C3E"/><path d="m50.156 33.136 18.71-10.322c-3.67-1.405-7.324-1.056-10.878-.712-3.356.333-6.514.654-9.554-.51l-1.311-.503 2.62-1.445c-.303-.421-.896-.78-1.63-1.061l-5.237.88c.396-1.247-.475-2.237-2.153-2.88-2.779-1.063-7.044-.817-9.524.55-2.479 1.368-2.236 3.341.543 4.405 1.678.643 3.952.858 6.603.474l-.99 2.506a8.768 8.768 0 0 0 2.565.545l2.619-1.445 1.31.502c3.041 1.164 2.925 2.65 2.82 4.227-.095 1.669-.183 3.384 3.487 4.79z" fill="#F7C631"/></svg>