<svg width="90" height="90" fill="none" xmlns="http://www.w3.org/2000/svg"><path d="M80.27 35.109a4.384 4.384 0 0 0-3.524-1.776H55.5l9.27-21.899A4.63 4.63 0 0 0 60.505 5H29.683a4.722 4.722 0 0 0-4.508 3.318L12.51 48.986a3.623 3.623 0 0 0 3.46 4.7h19.19L27.877 85.36a3.79 3.79 0 0 0 .573 3.002l.116.168a3.4 3.4 0 0 0 5.258.42l46.091-48.204a4.383 4.383 0 0 0 .355-5.637z" fill="#CF8D1B"/><path d="M61.742 5a1.889 1.889 0 0 1 1.717 2.675l-11.75 25.658h25.675c1.66 0 2.513 1.988 1.368 3.191l-47.43 49.853a1.964 1.964 0 0 1-3.35-1.74l6.811-33.964H14.551a1.889 1.889 0 0 1-1.804-2.45L25.174 8.318A4.722 4.722 0 0 1 29.683 5h32.059z" fill="#F7C631"/><path d="M52.236 33.409H77.38c1.66 0 2.513 1.99 1.368 3.192L31.32 86.378a1.965 1.965 0 0 1-3.349-1.742l6.81-33.963h-.24L52.236 33.41zM24.84 9.389 13.892 44.547a4.687 4.687 0 0 0 .503 3.905L57.836 5.01a4.924 4.924 0 0 0-.32-.01H29.682c-.118 0-.234.004-.35.013l-4.492 4.376z" fill="#FAD541"/><path d="M13.911 44.482 25.174 8.318A4.722 4.722 0 0 1 29.683 5h14.469l-7.957.31a13.222 13.222 0 0 0-12.004 8.954l-10.28 30.218z" fill="#FFF599"/><path d="M51.708 33.333 63.676 7.688A1.889 1.889 0 0 0 61.964 5H46.041l12.519.503a2.833 2.833 0 0 1 2.525 3.864l-9.377 23.966zM79.03 36.155a1.957 1.957 0 0 1-.278.37l-47.43 49.852a1.964 1.964 0 0 1-3.35-1.74l6.615-32.99-4.21 29.473c-.127.892.948 1.438 1.594.81L79.03 36.155z" fill="#FCE26A"/></svg>