<svg width="90" height="90" fill="none" xmlns="http://www.w3.org/2000/svg"><path d="M14.569 84.562c1.13-1.13 0-4.09-2.52-6.61-2.52-2.52-5.48-3.65-6.61-2.52s0 4.09 2.52 6.61c2.52 2.52 5.48 3.65 6.61 2.52z" fill="#DAD8D6"/><path d="m31.939 67.19-9.13-9.13L5.698 75.171l9.13 9.13 17.11-17.11z" fill="#DAD8D6"/><path d="M7.009 54.9c-3.47 3.47 0 12.561 7.75 20.311s16.88 11.22 20.35 7.79l4.65-4.64-28.07-28.11-4.68 4.65z" fill="#666564"/><path d="M39.749 78.321c3.47-3.47 0-12.56-7.76-20.31-7.75-7.75-16.851-11.221-20.311-7.76-3.47 3.47 0 12.56 7.76 20.31 7.75 7.75 16.85 11.22 20.31 7.76z" fill="#4B4847"/><path d="M10.539 43c-4.51 4.51 0 16.33 10.08 26.411 10.08 10.08 21.9 14.59 26.39 10.06l6.001-6L16.57 36.94 10.529 43h.01z" fill="#666564"/><path d="M53.06 73.441c4.51-4.51 0-16.34-10.08-26.411-10.081-10.07-21.902-14.59-26.412-10.08-4.51 4.51 0 16.34 10.08 26.41C36.728 73.442 48.55 77.952 53.06 73.442z" fill="#8B8987"/><path d="M39.38 59.76c1.13-1.13 0-4.09-2.52-6.61-2.52-2.52-5.48-3.65-6.61-2.52s0 4.09 2.52 6.61c2.52 2.52 5.48 3.65 6.61 2.52z" fill="#DAD8D6"/><path d="m56.75 42.38-9.13-9.13-17.111 17.11 9.13 9.13 17.11-17.11z" fill="#DAD8D6"/><path d="M39.08 14.419c-4.51 4.51 0 16.34 10.08 26.42C59.24 50.92 71.07 55.43 75.58 50.92l6-6L45.12 8.379l-6.04 6.04z" fill="#666564"/><path d="M81.621 44.88c4.51-4.51 0-16.34-10.08-26.411C61.46 8.389 49.64 3.879 45.13 8.389c-4.51 4.51 0 16.34 10.08 26.41 10.08 10.08 21.9 14.591 26.411 10.08z" fill="#8B8987"/><path d="M50.87 11.059c-3.47 3.47 0 12.56 7.76 20.31 7.76 7.75 16.841 11.231 20.311 7.76l4.64-4.65-28.06-28.05-4.65 4.64v-.01z" fill="#666564"/><path d="M83.582 34.49c3.47-3.47 0-12.56-7.76-20.311-7.75-7.75-16.851-11.22-20.311-7.76-3.47 3.47 0 12.56 7.76 20.31 7.75 7.75 16.85 11.22 20.311 7.76z" fill="#8B8987"/><path d="M74.11 25.02c1.13-1.13 0-4.091-2.52-6.611-2.52-2.52-5.48-3.65-6.61-2.52s0 4.09 2.52 6.61c2.52 2.52 5.48 3.65 6.61 2.52z" fill="#DAD8D6"/><path d="m84.561 14.579-9.13-9.13-10.44 10.44 9.13 9.13 10.44-10.44z" fill="#DAD8D6"/><path d="M84.562 14.569c1.13-1.13 0-4.09-2.52-6.61-2.52-2.52-5.48-3.65-6.61-2.52s0 4.09 2.52 6.61c2.52 2.52 5.48 3.65 6.61 2.52z" fill="#F1F1F1"/><path opacity=".5" fill-rule="evenodd" clip-rule="evenodd" d="M62.771 26.222c.165.17.331.339.5.507 7.623 7.624 16.553 11.106 20.136 7.925l-4.466 4.476c-3.47 3.47-12.55-.01-20.31-7.76a45.798 45.798 0 0 1-.5-.508l4.64-4.64zM14.274 74.719c.16.165.321.329.485.492 7.75 7.75 16.88 11.22 20.35 7.79l2.512-2.505c4.04 1.21 7.437.97 9.419-1.013l6-6c-4.54 4.444-16.32-.07-26.37-10.12a57.636 57.636 0 0 1-.517-.523l-6.045 6.045c.168.173.339.346.51.518 4.79 4.788 9.972 8.32 14.578 10.224-4.343-.366-10.376-3.684-15.758-9.066a44.807 44.807 0 0 1-.5-.507l-4.664 4.665zm40.43-40.43-6.044 6.044c.165.17.331.339.5.507 10.08 10.08 21.91 14.59 26.42 10.08l6-6c-4.539 4.444-16.32-.07-26.37-10.12-.17-.17-.339-.34-.505-.512z" fill="#4B4847"/><path fill-rule="evenodd" clip-rule="evenodd" d="M57.948 5.196c-.974.184-1.8.586-2.437 1.223-3.451 3.451-.037 12.462 7.635 20.185-6.24-8.344-8.77-17.323-5.635-20.968a4.3 4.3 0 0 1 .437-.44zM19.041 35.523c-.966.283-1.8.755-2.473 1.427-3.701 3.701-1.327 12.333 5.215 20.876-5.232-9.421-6.61-18.126-2.777-22.264a6.43 6.43 0 0 1 .035-.039zM47.603 6.96c-.967.283-1.801.755-2.473 1.427-3.702 3.701-1.328 12.333 5.214 20.876-5.232-9.42-6.609-18.125-2.777-22.264l.036-.038z" fill="#BEBDB9"/></svg>