<svg width="90" height="90" fill="none" xmlns="http://www.w3.org/2000/svg"><path d="M46.813 46.825a45.819 45.819 0 0 0 32.091 0 2.434 2.434 0 0 0 1.582-2.28V18.742H45.23v25.803c0 1.016.63 1.925 1.582 2.28z" fill="#CA9350"/><path d="M47.957 34.925a3.173 3.173 0 0 0 3 2.14h25.425c1.353 0 2.558-.86 3-2.14l1.309-3.797c.947-2.747-1.094-5.61-4-5.61H50.648c-2.907 0-4.948 2.863-4 5.61l1.309 3.797z" fill="#E3C29C"/><path d="M37.108 64.72c0-4.614 2.99-8.695 7.39-10.086l7.667-2.424 3.428-1.625a10.577 10.577 0 0 1 4.53-1.02H66.981c1.567 0 3.115.349 4.53 1.02l3.429 1.625 7.667 2.424a10.578 10.578 0 0 1 7.39 10.085v4.992A5.289 5.289 0 0 1 84.707 75h-42.31a5.289 5.289 0 0 1-5.29-5.289V64.72z" fill="#4B4847"/><path opacity=".5" fill-rule="evenodd" clip-rule="evenodd" d="M37.142 70.32a5.364 5.364 0 0 1-.034-.609V65.56h52.889v4.15c0 .207-.012.41-.035.61h-52.82zm48.324-14.28a10.593 10.593 0 0 1 3.778 4.76H37.86a10.594 10.594 0 0 1 3.779-4.76h43.827z" fill="#312E2B"/><path d="M37.108 64.422c0-4.436 2.875-8.361 7.106-9.699l7.95-2.513 3.429-1.625a10.577 10.577 0 0 1 4.53-1.02H66.981c1.567 0 3.115.349 4.53 1.02l3.429 1.625 7.95 2.513a10.172 10.172 0 0 1 7.107 9.7l-.124-.497a10.578 10.578 0 0 0-7.243-7.572l-19.078-5.683-19.07 5.66a10.577 10.577 0 0 0-7.285 7.713l-.09.378z" fill="#666564"/><path d="M61.33 69.778c0-3.231-1.477-6.286-4.01-8.292l-8.314-6.584a4.295 4.295 0 0 1 3.723-3.917l9.449-1.239c.913-.12 1.838-.12 2.75 0l9.45 1.24a4.294 4.294 0 0 1 3.722 3.916l-8.313 6.584a10.578 10.578 0 0 0-4.01 8.292V75H61.33v-5.222z" fill="#4B4847"/><path d="M61.33 68.34c0-3.179-1.43-6.19-3.893-8.198l-8.43-6.875 1.09-1.17a10.578 10.578 0 0 1 5.758-3.18l5.718-1.09c1.308-.25 2.652-.25 3.961 0l5.717 1.09a10.578 10.578 0 0 1 5.759 3.18l1.09 1.17-8.43 6.875a10.578 10.578 0 0 0-3.894 8.198V75H61.33v-6.66z" fill="#666564"/><path opacity=".5" d="M55.727 52.863c0 1.792.934 3.432 2.333 4.55 4.642 3.71 5.493 6.953 5.493 6.953s.843-3.25 5.47-6.952c1.4-1.12 2.335-2.76 2.335-4.553v-14.09h-15.63v14.092z" fill="#4B4847"/><path d="M55.727 51.137c0 1.467.581 2.911 1.785 3.75 3.93 2.74 8.237 2.852 12.16-.011 1.146-.835 1.686-2.237 1.686-3.655V39.83h-15.63v11.308z" fill="#D5A47D"/><path opacity=".5" d="M55.21 42.944a8.342 8.342 0 1 0 16.685 0V30.807H55.211v12.137z" fill="#8D694B"/><path d="M51.378 37.15a10.578 10.578 0 0 0 3.73 7.725l2.5 2.121a8.462 8.462 0 0 0 5.474 2.01h.94a8.462 8.462 0 0 0 5.475-2.01l2.5-2.121a10.577 10.577 0 0 0 3.73-7.724l.822-25.384H50.556l.822 25.384z" fill="#E3C29C"/><path d="M45.231 18.742a9.113 9.113 0 0 1 7.637-8.993l1.84-.302 4.548-2.388a15.22 15.22 0 0 1 17.072 1.999c5.884 5.126 6.938 13.87 2.44 20.247l-1.316 1.866-.42 14.081a1.02 1.02 0 0 1-2.037-.06l.404-13.654a5.236 5.236 0 0 0-5.234-5.392h-7.883c-2.26 0-4.473-.659-6.365-1.896l-3.979-2.6-1.387 12.892-5.32-15.8z" fill="#CA9350"/><path d="M45.231 18.742a9.113 9.113 0 0 1 7.637-8.993l1.84-.302 4.548-2.388a15.22 15.22 0 0 1 17.072 1.999c5.884 5.126 6.938 13.87 2.44 20.247l-1.316 1.866 1.204-2.099A14.684 14.684 0 0 0 59.082 8.771l-4.375 2.302-2.01.204a8.356 8.356 0 0 0-7.466 7.465z" fill="#E2B664"/><path d="M.083 73.587c0-4.45 2.82-8.412 7.026-9.869l3.104-1.076a52.214 52.214 0 0 0 9.449-4.371l1.886-1.114a10.445 10.445 0 0 1 5.31-1.45h4.785c1.867 0 3.7.501 5.309 1.45l1.886 1.114a52.224 52.224 0 0 0 9.448 4.371l3.105 1.076a10.445 10.445 0 0 1 7.026 9.87v6.19A5.222 5.222 0 0 1 53.194 85H5.306a5.222 5.222 0 0 1-5.223-5.222v-6.19z" fill="#008CD1"/><path opacity=".5" d="M16.872 64.959a3.055 3.055 0 0 1-1.197-1.726 3.861 3.861 0 0 1 1.712-4.264l5.554-3.42c.4-.246.86-.376 1.329-.376h9.96c.47 0 .93.13 1.33.376l5.553 3.42a3.861 3.861 0 0 1 1.712 4.264 3.056 3.056 0 0 1-1.197 1.726l-6.571 4.627a10.086 10.086 0 0 1-11.614 0l-6.57-4.627z" fill="#0B548C"/><path fill-rule="evenodd" clip-rule="evenodd" d="m42.945 62.455 6.221 1.62a12.509 12.509 0 0 1 9.25 10.48v-.968c0-4.45-2.82-8.412-7.025-9.869l-3.105-1.076a52.22 52.22 0 0 1-5.957-2.486c.438.676.659 1.48.616 2.3zM16.17 60.156c-1.931.95-3.92 1.78-5.957 2.486L7.11 63.718a10.445 10.445 0 0 0-7.026 9.87v.967a12.509 12.509 0 0 1 9.25-10.48l6.221-1.62a3.864 3.864 0 0 1 .616-2.299z" fill="#4DC3EA"/><path d="M23.908 69.463h2.075V85h-2.075V69.463zM32.208 69.463h2.075V85h-2.075V69.463z" fill="#4DC3EA"/><path d="M19.17 65.565a4.723 4.723 0 0 1-.878-1.043 7.87 7.87 0 0 1 2.577-10.86l1.325-.81c.296-.182.636-.278.983-.278h12.146c.347 0 .687.096.983.277l1.325.811a7.87 7.87 0 0 1 2.577 10.86c-.24.388-.537.74-.878 1.043L34.78 69.6a8.333 8.333 0 0 1-11.06 0l-4.55-4.036z" fill="#4DC3EA"/><path d="M18.654 65.108c-2.933-3.846-1.75-9.4 2.494-11.717l1.096-.598c.263-.144.558-.22.859-.22h12.292c.3 0 .596.076.86.22l1.095.598c4.245 2.317 5.427 7.871 2.494 11.717a8.472 8.472 0 0 0-3.548-11.206l-.443-.24H22.645l-.314.178a8.793 8.793 0 0 0-3.677 11.268z" fill="#83DEFC"/><path d="M13.636 45.68a2.453 2.453 0 0 0 1.983 1.01h27.263c.785 0 1.522-.376 1.984-1.01 3.147-4.324.059-10.392-5.29-10.392H18.926c-5.348 0-8.437 6.068-5.289 10.392zM21.03 59.25c0 1.506.648 2.94 1.81 3.898 2.777 2.288 6.41 5.105 6.41 5.105s3.716-2.8 6.496-5.132c1.117-.936 1.722-2.33 1.722-3.787V48.182H21.03V59.25z" fill="#6B4D3A"/><path d="M21.03 53.396a8.219 8.219 0 0 0 16.438 0v-13.75H21.03v13.75z" fill="#543F34"/><path d="M16.197 48.034a8.355 8.355 0 0 0 2.981 5.832l3.419 2.854a8.356 8.356 0 0 0 5.354 1.94h2.597a8.356 8.356 0 0 0 5.354-1.94l3.42-2.854a8.355 8.355 0 0 0 2.98-5.832L44.13 21.89H14.37l1.827 26.144z" fill="#8D694B"/><path d="M29.487 10c22.567-.093 23.455 21.27 15.87 28.977-.556.565-1.29.902-2.063 1.08l-.64.147-.42-6.318c-.124-1.852-1.452-3.413-3.292-3.66-5.812-.783-13.521-.75-19.346.014-1.857.244-3.207 1.812-3.332 3.681l-.418 6.283-.323-.074c-.973-.225-1.88-.706-2.489-1.498C6.36 29.944 7.606 10.091 29.487 10z" fill="#312E2B"/><path d="M29.487 10c23.415-.096 23.491 21.981 14.98 29.786 6.37-7.497 7.455-27.51-14.98-27.51-22.436 0-21.33 20.234-15.454 27.51C6.287 31.866 6.572 10.096 29.487 10z" fill="#4B4847"/></svg>