<svg width="90" height="90" fill="none" xmlns="http://www.w3.org/2000/svg"><path d="M0 34v-1a4 4 0 0 1 4-4h17.999a4 4 0 0 1 4 4v1H0z" fill="#F8F8F8"/><path d="M0 34v-1a4 4 0 0 1 4-4h17.999a4 4 0 0 1 4 4v1H0z" fill="#F8F8F8"/><path d="M26 81a4 4 0 0 1-4 4H4a4 4 0 0 1-4-4V34H26v47z" fill="#B3ACA8"/><path d="M26 81a4 4 0 0 1-4 4H4a4 4 0 0 1-4-4V34H26v47z" fill="#B3ACA8"/><path d="M32 10V9a4 4 0 0 1 4-4h17.999a4 4 0 0 1 4 4v1H32z" fill="#FCE26A"/><path d="M32 10V9a4 4 0 0 1 4-4h17.999a4 4 0 0 1 4 4v1H32z" fill="#FCE26A"/><path d="M58 10H32v71a4 4 0 0 0 4 4h18a4 4 0 0 0 4-4V10z" fill="#E3AA24"/><path d="M58 10H32v71a4 4 0 0 0 4 4h18a4 4 0 0 0 4-4V10z" fill="#E3AA24"/><path d="M64 81a4 4 0 0 0 4 4h18a4 4 0 0 0 4-4V49H64v32z" fill="#7A4414"/><path d="M64 81a4 4 0 0 0 4 4h18a4 4 0 0 0 4-4V49H64v32z" fill="#7A4414"/><path d="M64 49v-1a4 4 0 0 1 4-4h17.999a4 4 0 0 1 4 4v1H64z" fill="#B37314"/><path d="M64 49v-1a4 4 0 0 1 4-4h17.999a4 4 0 0 1 4 4v1H64z" fill="#B37314"/><path d="M58 81V50l-1.167 29.728a4 4 0 0 1-3.997 3.843H37.21a4 4 0 0 1-3.997-3.837L32 50v31a4 4 0 0 0 4 4h18a4 4 0 0 0 4-4z" fill="#F7C631"/><path d="M58 81V50l-1.167 29.728a4 4 0 0 1-3.997 3.843H37.21a4 4 0 0 1-3.997-3.837L32 50v31a4 4 0 0 0 4 4h18a4 4 0 0 0 4-4z" fill="#F7C631"/><path d="M90 81V50l-1.167 29.728a4 4 0 0 1-3.997 3.843H69.21a4 4 0 0 1-3.997-3.837L64 50v31a4 4 0 0 0 4 4h18a4 4 0 0 0 4-4z" fill="#99580E"/><path d="M90 81V50l-1.167 29.728a4 4 0 0 1-3.997 3.843H69.21a4 4 0 0 1-3.997-3.837L64 50v31a4 4 0 0 0 4 4h18a4 4 0 0 0 4-4z" fill="#99580E"/><path d="M26 81V60l-1.11 20.2a4 4 0 0 1-3.994 3.78H5.089a4 4 0 0 1-3.99-3.711L0 65.102V81a4 4 0 0 0 4 4h18a4 4 0 0 0 4-4z" fill="#BEBDB9"/><path d="M26 81V60l-1.11 20.2a4 4 0 0 1-3.994 3.78H5.089a4 4 0 0 1-3.99-3.711L0 65.102V81a4 4 0 0 0 4 4h18a4 4 0 0 0 4-4z" fill="#BEBDB9"/><path d="M38.068 34.53h14.88V39h-14.88v-4.47zm5.97-15.12 5.31 2.31-10.98 4.29v-5.13l7.5-2.88h3.54v21h-5.37V19.41z" fill="#CF8D1B"/><path d="M38.068 34.53h14.88V39h-14.88v-4.47zm5.97-15.12 5.31 2.31-10.98 4.29v-5.13l7.5-2.88h3.54v21h-5.37V19.41z" fill="#CF8D1B"/><path d="m5.83 58.28 6.93-7.17c.46-.5.82-.96 1.08-1.38.28-.42.48-.81.6-1.17.12-.36.18-.73.18-1.11 0-.44-.1-.83-.3-1.17-.18-.34-.47-.6-.87-.78-.38-.18-.86-.27-1.44-.27-.78 0-1.64.18-2.58.54-.92.36-1.9.86-2.94 1.5-.22.12-.44.25-.66.39v-5.07c1.04-.62 2.13-1.1 3.27-1.44 1.16-.34 2.35-.51 3.57-.51 1.38 0 2.61.25 3.69.75s1.92 1.22 2.52 2.16c.6.94.9 2.06.9 3.36 0 .7-.09 1.38-.27 2.04-.18.64-.5 1.33-.96 2.07-.46.74-1.11 1.55-1.95 2.43l-5.43 5.82-.93-1.5h9.81V62H5.83v-3.72z" fill="#8B8987"/><path d="m5.83 58.28 6.93-7.17c.46-.5.82-.96 1.08-1.38.28-.42.48-.81.6-1.17.12-.36.18-.73.18-1.11 0-.44-.1-.83-.3-1.17-.18-.34-.47-.6-.87-.78-.38-.18-.86-.27-1.44-.27-.78 0-1.64.18-2.58.54-.92.36-1.9.86-2.94 1.5-.22.12-.44.25-.66.39v-5.07c1.04-.62 2.13-1.1 3.27-1.44 1.16-.34 2.35-.51 3.57-.51 1.38 0 2.61.25 3.69.75s1.92 1.22 2.52 2.16c.6.94.9 2.06.9 3.36 0 .7-.09 1.38-.27 2.04-.18.64-.5 1.33-.96 2.07-.46.74-1.11 1.55-1.95 2.43l-5.43 5.82-.93-1.5h9.81V62H5.83v-3.72z" fill="#8B8987"/><path d="M76.102 76.36c-1.04 0-2.08-.12-3.12-.36-1.02-.24-2.05-.59-3.09-1.05v-4.62c1.22.58 2.3 1 3.24 1.26.94.26 1.84.39 2.7.39.66 0 1.24-.09 1.74-.27.52-.2.92-.48 1.2-.84.28-.38.42-.84.42-1.38 0-.74-.28-1.31-.84-1.71-.56-.42-1.41-.63-2.55-.63h-2.22v-3.42l5.64-6.27.54 1.71h-9.84V55h13.8v3.69l-5.61 6.09-2.61-1.5h1.47c1.6 0 2.96.27 4.08.81 1.14.52 2 1.25 2.58 2.19.58.92.87 2 .87 3.24 0 1.26-.32 2.41-.96 3.45-.62 1.04-1.57 1.87-2.85 2.49-1.26.6-2.79.9-4.59.9z" fill="#572C12"/><path d="M76.102 76.36c-1.04 0-2.08-.12-3.12-.36-1.02-.24-2.05-.59-3.09-1.05v-4.62c1.22.58 2.3 1 3.24 1.26.94.26 1.84.39 2.7.39.66 0 1.24-.09 1.74-.27.52-.2.92-.48 1.2-.84.28-.38.42-.84.42-1.38 0-.74-.28-1.31-.84-1.71-.56-.42-1.41-.63-2.55-.63h-2.22v-3.42l5.64-6.27.54 1.71h-9.84V55h13.8v3.69l-5.61 6.09-2.61-1.5h1.47c1.6 0 2.96.27 4.08.81 1.14.52 2 1.25 2.58 2.19.58.92.87 2 .87 3.24 0 1.26-.32 2.41-.96 3.45-.62 1.04-1.57 1.87-2.85 2.49-1.26.6-2.79.9-4.59.9z" fill="#572C12"/><path d="M38.068 32.53h14.88V37h-14.88v-4.47zm5.97-15.12 5.31 2.31-10.98 4.29v-5.13l7.5-2.88h3.54v21h-5.37V17.41z" fill="#FCE26A"/><path d="M38.068 32.53h14.88V37h-14.88v-4.47zm5.97-15.12 5.31 2.31-10.98 4.29v-5.13l7.5-2.88h3.54v21h-5.37V17.41z" fill="#FCE26A"/><path d="m5.83 56.28 6.93-7.17c.46-.5.82-.96 1.08-1.38.28-.42.48-.81.6-1.17.12-.36.18-.73.18-1.11 0-.44-.1-.83-.3-1.17-.18-.34-.47-.6-.87-.78-.38-.18-.86-.27-1.44-.27-.78 0-1.64.18-2.58.54-.92.36-1.9.86-2.94 1.5-.22.12-.44.25-.66.39v-5.07c1.04-.62 2.13-1.1 3.27-1.44 1.16-.34 2.35-.51 3.57-.51 1.38 0 2.61.25 3.69.75s1.92 1.22 2.52 2.16c.6.94.9 2.06.9 3.36 0 .7-.09 1.38-.27 2.04-.18.64-.5 1.33-.96 2.07-.46.74-1.11 1.55-1.95 2.43l-5.43 5.82-.93-1.5h9.81V60H5.83v-3.72z" fill="#F1F1F1"/><path d="m5.83 56.28 6.93-7.17c.46-.5.82-.96 1.08-1.38.28-.42.48-.81.6-1.17.12-.36.18-.73.18-1.11 0-.44-.1-.83-.3-1.17-.18-.34-.47-.6-.87-.78-.38-.18-.86-.27-1.44-.27-.78 0-1.64.18-2.58.54-.92.36-1.9.86-2.94 1.5-.22.12-.44.25-.66.39v-5.07c1.04-.62 2.13-1.1 3.27-1.44 1.16-.34 2.35-.51 3.57-.51 1.38 0 2.61.25 3.69.75s1.92 1.22 2.52 2.16c.6.94.9 2.06.9 3.36 0 .7-.09 1.38-.27 2.04-.18.64-.5 1.33-.96 2.07-.46.74-1.11 1.55-1.95 2.43l-5.43 5.82-.93-1.5h9.81V60H5.83v-3.72z" fill="#F1F1F1"/><path d="M76.102 74.36c-1.04 0-2.08-.12-3.12-.36-1.02-.24-2.05-.59-3.09-1.05v-4.62c1.22.58 2.3 1 3.24 1.26.94.26 1.84.39 2.7.39.66 0 1.24-.09 1.74-.27.52-.2.92-.48 1.2-.84.28-.38.42-.84.42-1.38 0-.74-.28-1.31-.84-1.71-.56-.42-1.41-.63-2.55-.63h-2.22v-3.42l5.64-6.27.54 1.71h-9.84V53h13.8v3.69l-5.61 6.09-2.61-1.5h1.47c1.6 0 2.96.27 4.08.81 1.14.52 2 1.25 2.58 2.19.58.92.87 2 .87 3.24 0 1.26-.32 2.41-.96 3.45-.62 1.04-1.57 1.87-2.85 2.49-1.26.6-2.79.9-4.59.9z" fill="#CF8D1B"/><path d="M76.102 74.36c-1.04 0-2.08-.12-3.12-.36-1.02-.24-2.05-.59-3.09-1.05v-4.62c1.22.58 2.3 1 3.24 1.26.94.26 1.84.39 2.7.39.66 0 1.24-.09 1.74-.27.52-.2.92-.48 1.2-.84.28-.38.42-.84.42-1.38 0-.74-.28-1.31-.84-1.71-.56-.42-1.41-.63-2.55-.63h-2.22v-3.42l5.64-6.27.54 1.71h-9.84V53h13.8v3.69l-5.61 6.09-2.61-1.5h1.47c1.6 0 2.96.27 4.08.81 1.14.52 2 1.25 2.58 2.19.58.92.87 2 .87 3.24 0 1.26-.32 2.41-.96 3.45-.62 1.04-1.57 1.87-2.85 2.49-1.26.6-2.79.9-4.59.9z" fill="#CF8D1B"/></svg>