<svg width="90" height="90" fill="none" xmlns="http://www.w3.org/2000/svg"><path d="M75 70H15a2 2 0 0 0-2 2v11a2 2 0 0 0 2 2h60a2 2 0 0 0 2-2V72a2 2 0 0 0-2-2z" fill="#FA412D"/><path fill-rule="evenodd" clip-rule="evenodd" d="M35.58 70a99.233 99.233 0 0 1-8.737 15H15a2 2 0 0 1-2-2V72a2 2 0 0 1 2-2h20.58z" fill="#FF6352"/><path d="M87.916 22.045c-2.859-2.81-7.502-2.81-10.362 0a7.084 7.084 0 0 0-1.386 8.265l-12.083 8.201a.783.783 0 0 1-1.139-.22l-9.932-16.15c2.73-.717 4.74-3.149 4.74-6.044 0-3.464-2.86-6.264-6.396-6.264h-.032a5.04 5.04 0 0 0 .032-.569C51.358 5.8 48.5 3 44.963 3c-3.537 0-6.396 2.8-6.396 6.264 0 .19.01.38.032.569h-.032c-3.537 0-6.396 2.8-6.396 6.264 0 2.927 2.043 5.37 4.816 6.064l-9.922 16.14c-.247.4-.752.495-1.14.22l-12.253-8.306a7.008 7.008 0 0 0-1.376-8.16c-2.827-2.779-7.428-2.768-10.255 0l.022.022c-.065.063-.086.2-.033.4l11.863 40.09A2 2 0 0 0 15.81 64h58.41a2 2 0 0 0 1.918-1.434L87.97 22.477c.054-.21.032-.358-.043-.421l-.01-.01z" fill="#F7C631"/><path d="M88 22.409 75.944 62.575a2 2 0 0 1-1.916 1.424H45l27.284-2.075a2 2 0 0 0 1.726-1.307L88 22.41z" fill="#FCE26A"/><path fill-rule="evenodd" clip-rule="evenodd" d="M45 3v26.08A93.82 93.82 0 0 1 38.274 64H15.81a2 2 0 0 1-1.918-1.432L2.03 22.477c-.053-.2-.032-.337.033-.4l-.022-.021c2.827-2.769 7.428-2.78 10.255 0a7.008 7.008 0 0 1 1.376 8.16l12.254 8.306c.387.274.892.179 1.14-.221l9.92-16.14c-2.772-.695-4.815-3.137-4.815-6.064 0-3.464 2.86-6.264 6.396-6.264h.032a5.04 5.04 0 0 1-.032-.569C38.567 5.8 41.427 3 44.963 3H45z" fill="#FCE26A"/><path fill-rule="evenodd" clip-rule="evenodd" d="M77.554 22.045c2.86-2.81 7.503-2.81 10.362 0l.011.01c.075.064.097.212.043.422l-.158.537c-2.867-2.648-7.433-2.615-10.258.099a6.858 6.858 0 0 0-2.127 4.492 7.084 7.084 0 0 1 2.127-5.56zm-1.69 8.47-11.779 7.996a.783.783 0 0 1-1.139-.22l-9.898-16.095-.034.01 9.932 18.782a.794.794 0 0 0 1.14.216L76.167 31.19a6.825 6.825 0 0 1-.303-.674zm-18.14-13.81c.02-.2.03-.403.03-.608 0-3.464-2.86-6.264-6.396-6.264h-.032a5.04 5.04 0 0 0 .032-.569C51.358 5.8 48.5 3 44.963 3c-3.537 0-6.396 2.8-6.396 6.264 0 .19.01.38.032.569h-.032c-3.537 0-6.396 2.8-6.396 6.264 0 .205.01.408.03.608.311-3.105 3.039-5.527 6.366-5.527h.032a4.814 4.814 0 0 1-.032-.556c0-3.385 2.86-6.122 6.396-6.122s6.395 2.737 6.395 6.122c0 .185-.01.37-.032.556h.032c3.327 0 6.055 2.421 6.367 5.526zm-20.772 5.512-9.887 16.084c-.247.4-.752.495-1.14.22L13.975 30.42c-.088.23-.188.455-.302.677l12.254 10.118c.387.267.892.174 1.14-.217l9.92-18.772a4.334 4.334 0 0 1-.034-.009zm-22.554 5.344a7.022 7.022 0 0 0-2.102-5.505c-2.827-2.78-7.428-2.769-10.255 0l.022.021c-.065.063-.086.2-.033.4l.153.514c2.837-2.574 7.333-2.54 10.113.132 1.287 1.237 1.988 2.822 2.102 4.438z" fill="#FFF599"/><path d="m2 22.409 12.056 40.166a2 2 0 0 0 1.916 1.424H35l-17.87-2.265a2 2 0 0 1-1.633-1.315L2 22.41z" fill="#FFF599"/></svg>