<svg width="90" height="90" fill="none" xmlns="http://www.w3.org/2000/svg"><g clip-path="url(#a)"><path d="M78.2 9.73H11.8a2.07 2.07 0 0 0-2.07 2.07v66.4a2.07 2.07 0 0 0 2.07 2.07h66.4a2.07 2.07 0 0 0 2.07-2.07V11.8a2.07 2.07 0 0 0-2.07-2.07z" fill="#9D6C3E"/><path d="M29.91 14.83H14.83v15.08h15.08V14.83zM60.08 14.83H45v15.08h15.08V14.83zM60.09 45h15.08V29.92H60.09V45zM29.92 45H45V29.92H29.92V45zM29.91 45H14.83v15.08h15.08V45zM60.08 45H45v15.08h15.08V45zM60.09 75.17h15.08V60.09H60.09v15.08zM29.92 75.17H45V60.09H29.92v15.08z" fill="#FBF3D8"/><path d="M45 14.83H29.92v15.08H45V14.83zM75.16 14.83H60.08v15.08h15.08V14.83zM45 45h15.08V29.92H45V45zM14.84 45h15.08V29.92H14.84V45zM45 45H29.92v15.08H45V45zM75.16 45H60.08v15.08h15.08V45zM45 75.17h15.08V60.09H45v15.08zM14.84 75.17h15.08V60.09H14.84v15.08z" fill="#CA9350"/><path opacity=".15" d="M27.28 38.31 9.73 66.4v11.85c0 1.11.9 2.02 2.02 2.02h66.5c1.04 0 1.9-.79 2.01-1.81 0-.07.01-.14.01-.21V17.06L49.96 52.55 27.28 38.32v-.01z" fill="#000"/><path d="m63.6 15.9 7.25 7.25-20.08 20.31L36.6 29.42c-.68-.68-1.78-.68-2.46 0L.51 62.84c-.68.68-.68 1.78 0 2.46l8.24 8.24c.68.68 1.78.68 2.46 0L35.39 49.6l14.1 14.1c.68.68 1.78.68 2.46 0l29.61-29.84 7.25 7.25c.44.44 1.19.13 1.19-.49V15.41c0-.39-.31-.7-.7-.7H64.1c-.62 0-.93.75-.49 1.19h-.01z" fill="#FA412D"/><path d="m50.85 53.43 37.22-36.46H68.16l6.19 6.15-23.3 23.53-.2 6.78zM35.22 39.33 6.52 67.79l-2.04-2.04-1.23-1.23L35.1 32.91l.12 6.42z" fill="#FF7259"/></g><defs><clipPath id="a"><path fill="#fff" d="M0 0h90v90H0z"/></clipPath></defs></svg>